<svg viewBox="0 0 200 220" xmlns="http://www.w3.org/2000/svg" width="200" height="220">
  <circle cx="100" cy="120" r="90" fill="rgba(224, 242, 241, 0.6)"/>
  <ellipse cx="100" cy="215" rx="45" ry="7" fill="rgba(0,0,0,0.1)"/>
  <!-- LEGS (sitting) -->
  <path d="M75 170 Q70 210 90 205" fill="none" stroke="#d4935e" stroke-width="14" stroke-linecap="round" stroke-linejoin="round"/>
  <path d="M125 170 Q130 210 110 205" fill="none" stroke="#d4935e" stroke-width="14" stroke-linecap="round" stroke-linejoin="round"/>
  <!-- Shorts -->
  <path d="M65 170 Q100 185 135 170 L125 185 Q100 190 75 185 Z" fill="#546e7a"/>
  <!-- BODY (Green shirt) -->
  <path d="M65 120 Q100 135 135 120 L135 170 Q100 180 65 170 Z" fill="#2e7d32"/>
  <!-- Collar -->
  <path d="M85 120 L100 130 L115 120 Z" fill="#1b5e20"/>
  <!-- NECK -->
  <rect x="92" y="110" width="16" height="20" fill="#c07a45"/>
  <!-- ARMS -->
  <path d="M65 125 Q50 150 85 160" fill="none" stroke="#d4935e" stroke-width="12" stroke-linecap="round"/>
  <path d="M135 125 Q150 150 115 160" fill="none" stroke="#d4935e" stroke-width="12" stroke-linecap="round"/>
  <path d="M60 120 L48 145 L62 148 L70 125 Z" fill="#2e7d32"/>
  <path d="M140 120 L152 145 L138 148 L130 125 Z" fill="#2e7d32"/>
  <!-- BOOK -->
  <path d="M75 155 L100 165 L125 155 L120 175 L100 185 L80 175 Z" fill="#ffffff" stroke="#e0e0e0" stroke-width="2"/>
  <path d="M75 155 L100 165 L100 185 L80 175 Z" fill="#f5f5f5"/>
  <line x1="100" y1="165" x2="100" y2="185" stroke="#9e9e9e" stroke-width="2"/>
  <line x1="85" y1="162" x2="95" y2="167" stroke="#bdbdbd" stroke-width="1.5"/>
  <line x1="105" y1="167" x2="115" y2="162" stroke="#bdbdbd" stroke-width="1.5"/>
  <line x1="85" y1="166" x2="95" y2="171" stroke="#bdbdbd" stroke-width="1.5"/>
  <line x1="105" y1="171" x2="115" y2="166" stroke="#bdbdbd" stroke-width="1.5"/>
  <!-- HANDS -->
  <circle cx="85" cy="160" r="6" fill="#d4935e"/>
  <circle cx="115" cy="160" r="6" fill="#d4935e"/>
  <!-- HEAD -->
  <circle cx="100" cy="85" r="42" fill="#d4935e"/>
  <!-- EARS -->
  <circle cx="58" cy="88" r="11" fill="#d4935e"/>
  <circle cx="142" cy="88" r="11" fill="#d4935e"/>
  <!-- HAIR (Curly) -->
  <circle cx="100" cy="45" r="15" fill="#1a1a1a"/>
  <circle cx="85" cy="48" r="14" fill="#1a1a1a"/>
  <circle cx="115" cy="48" r="14" fill="#1a1a1a"/>
  <circle cx="70" cy="55" r="13" fill="#1a1a1a"/>
  <circle cx="130" cy="55" r="13" fill="#1a1a1a"/>
  <circle cx="60" cy="68" r="12" fill="#1a1a1a"/>
  <circle cx="140" cy="68" r="12" fill="#1a1a1a"/>
  <!-- Bangs -->
  <circle cx="80" cy="60" r="10" fill="#1a1a1a"/>
  <circle cx="95" cy="62" r="11" fill="#1a1a1a"/>
  <circle cx="110" cy="60" r="10" fill="#1a1a1a"/>
  <circle cx="120" cy="65" r="9" fill="#1a1a1a"/>
  <circle cx="75" cy="65" r="9" fill="#1a1a1a"/>
  <!-- EYES -->
  <circle cx="85" cy="85" r="10" fill="white"/>
  <circle cx="115" cy="85" r="10" fill="white"/>
  <circle cx="85" cy="85" r="6" fill="#4e342e"/>
  <circle cx="115" cy="85" r="6" fill="#4e342e"/>
  <circle cx="85" cy="85" r="3" fill="#1a1a1a"/>
  <circle cx="115" cy="85" r="3" fill="#1a1a1a"/>
  <!-- SPECTACLES -->
  <rect x="73" y="75" width="24" height="20" rx="4" fill="none" stroke="#37474f" stroke-width="2.5"/>
  <rect x="103" y="75" width="24" height="20" rx="4" fill="none" stroke="#37474f" stroke-width="2.5"/>
  <line x1="97" y1="85" x2="103" y2="85" stroke="#37474f" stroke-width="2.5"/>
  <line x1="58" y1="83" x2="73" y2="85" stroke="#37474f" stroke-width="2.5"/>
  <line x1="142" y1="83" x2="127" y2="85" stroke="#37474f" stroke-width="2.5"/>
  <!-- EYEBROWS -->
  <path d="M75" stroke="#4e342e" stroke-width="2.5" fill="none" stroke-linecap="round"/>
  <path d="M75 70 Q85 66 93 70" stroke="#4e342e" stroke-width="2.5" fill="none" stroke-linecap="round"/>
  <path d="M107 70 Q115 66 125 70" stroke="#4e342e" stroke-width="2.5" fill="none" stroke-linecap="round"/>
  <!-- NOSE -->
  <circle cx="100" cy="95" r="4" fill="#c07a45"/>
  <!-- MOUTH (Studious, slight smile) -->
  <path d="M90 106 Q100 110 110 106" stroke="#5d4037" stroke-width="2" fill="none" stroke-linecap="round"/>
  <!-- CHEEKS -->
  <circle cx="73" cy="97" r="8" fill="rgba(255,150,100,0.3)"/>
  <circle cx="127" cy="97" r="8" fill="rgba(255,150,100,0.3)"/>
</svg>
