<svg viewBox="0 0 200 220" xmlns="http://www.w3.org/2000/svg" width="200" height="220">
  <circle cx="100" cy="120" r="90" fill="rgba(255, 243, 224, 0.6)"/>
  <ellipse cx="100" cy="215" rx="45" ry="7" fill="rgba(0,0,0,0.1)"/>
  <!-- LEGS (Standing) -->
  <path d="M85 170 L85 205 Q85 210 90 210 L100 210" fill="none" stroke="#d4935e" stroke-width="12" stroke-linecap="round" stroke-linejoin="round"/>
  <path d="M115 170 L115 205 Q115 210 110 210 L100 210" fill="none" stroke="#d4935e" stroke-width="12" stroke-linecap="round" stroke-linejoin="round"/>
  <!-- JEANS -->
  <path d="M70 170 Q100 180 130 170 L125 185 Q100 190 75 185 Z" fill="#1976d2"/>
  <!-- SHIRT (Orange casual) -->
  <path d="M68 120 Q100 130 132 120 L135 175 Q100 185 65 175 Z" fill="#e65100"/>
  <!-- NECK -->
  <rect x="94" y="112" width="12" height="15" fill="#c07a45"/>
  <!-- ARMS -->
  <path d="M68 125 Q45 150 75 160" fill="none" stroke="#d4935e" stroke-width="10" stroke-linecap="round"/>
  <path d="M132 125 Q155 150 125 160" fill="none" stroke="#d4935e" stroke-width="10" stroke-linecap="round"/>
  <path d="M65 120 L55 140 L68 143 Z" fill="#e65100"/>
  <path d="M135 120 L145 140 L132 143 Z" fill="#e65100"/>
  <!-- SKETCHBOOK -->
  <rect x="75" y="145" width="50" height="30" rx="2" fill="#ffffff" stroke="#9e9e9e" stroke-width="2"/>
  <circle cx="85" cy="160" r="10" fill="#f48fb1"/> <!-- Drawing on sketchbook -->
  <path d="M85 160 L95 155 L90 165 Z" fill="#2196f3"/>
  <line x1="75" y1="150" x2="80" y2="150" stroke="#9e9e9e" stroke-width="2"/>
  <line x1="75" y1="160" x2="80" y2="160" stroke="#9e9e9e" stroke-width="2"/>
  <line x1="75" y1="170" x2="80" y2="170" stroke="#9e9e9e" stroke-width="2"/>
  <!-- HANDS -->
  <circle cx="75" cy="160" r="5" fill="#d4935e"/>
  <circle cx="125" cy="160" r="5" fill="#d4935e"/>
  <!-- HEAD -->
  <circle cx="100" cy="85" r="40" fill="#d4935e"/>
  <!-- EARS -->
  <circle cx="60" cy="88" r="10" fill="#d4935e"/>
  <circle cx="140" cy="88" r="10" fill="#d4935e"/>
  <!-- PENCIL BEHIND EAR -->
  <rect x="142" y="70" width="4" height="25" fill="#ffeb3b" transform="rotate(30 144 82)"/>
  <path d="M138 92 L142 98 L146 92 Z" fill="#ffc107" transform="rotate(30 144 82)"/>
  <circle cx="142" cy="98" r="1.5" fill="#212121" transform="rotate(30 144 82)"/>
  <!-- HAIR (Medium wavy) -->
  <path d="M58 85 Q50 60 70 45 Q90 35 110 40 Q130 45 142 60 Q150 80 140 90 Q135 70 120 60 Q100 50 80 60 Q65 70 60 90" fill="#1a1a1a"/>
  <!-- Wavy bangs -->
  <path d="M65 65 Q80 80 95 65 Q110 80 125 65 Q110 50 95 55 Q80 50 65 65" fill="#1a1a1a"/>
  <path d="M55 75 Q45 85 50 95 Q60 85 65 75" fill="#1a1a1a"/>
  <path d="M145 75 Q155 85 150 95 Q140 85 135 75" fill="#1a1a1a"/>
  <!-- EYES -->
  <circle cx="85" cy="85" r="10" fill="white"/>
  <circle cx="115" cy="85" r="10" fill="white"/>
  <circle cx="85" cy="85" r="6" fill="#4e342e"/>
  <circle cx="115" cy="85" r="6" fill="#4e342e"/>
  <circle cx="85" cy="85" r="3" fill="#1a1a1a"/>
  <circle cx="115" cy="85" r="3" fill="#1a1a1a"/>
  <circle cx="88" cy="82" r="2.5" fill="white"/>
  <circle cx="118" cy="82" r="2.5" fill="white"/>
  <!-- EYEBROWS -->
  <path d="M75 73 Q85 69 93 75" stroke="#4e342e" stroke-width="2.5" fill="none" stroke-linecap="round"/>
  <path d="M107 75 Q115 69 125 73" stroke="#4e342e" stroke-width="2.5" fill="none" stroke-linecap="round"/>
  <!-- NOSE -->
  <circle cx="100" cy="95" r="3.5" fill="#c07a45"/>
  <!-- MOUTH (Creative expression, smiling) -->
  <path d="M85 105 Q100 115 115 105" stroke="#5d4037" stroke-width="2.5" fill="none" stroke-linecap="round"/>
  <circle cx="83" cy="103" r="1.5" fill="#5d4037"/>
  <circle cx="117" cy="103" r="1.5" fill="#5d4037"/>
  <!-- CHEEKS -->
  <circle cx="73" cy="97" r="8" fill="rgba(255,150,100,0.35)"/>
  <circle cx="127" cy="97" r="8" fill="rgba(255,150,100,0.35)"/>
</svg>
